<svg width="16" height="16" viewBox="0 0 16 16" fill="none" xmlns="http://www.w3.org/2000/svg">
<path d="M13.2913 12.7103L13.3541 11.6835C13.3853 11.1733 13.1027 10.6955 12.6406 10.4771L11.4027 9.89187C10.815 9.61402 10.1124 9.83309 9.78668 10.3957L9.66275 10.6098C9.66275 10.6098 8.12224 10.2025 6.95089 8.87854C5.77953 7.55456 5.563 5.9759 5.563 5.9759L5.7906 5.87898C6.38874 5.62428 6.6918 4.95361 6.48765 4.33638L6.05768 3.03638C5.89718 2.5511 5.4574 2.21243 4.94722 2.18123L3.92043 2.11842C3.23136 2.07628 2.63859 2.60071 2.59645 3.28978C2.25929 8.80233 6.45477 13.5445 11.9673 13.8816C12.6564 13.9238 13.2491 13.3993 13.2913 12.7103Z" fill="white"/>
</svg>
