<svg width="15" height="16" viewBox="0 0 15 16" fill="none" xmlns="http://www.w3.org/2000/svg">
<path fill-rule="evenodd" clip-rule="evenodd" d="M6.09416 10.5591C3.66785 10.7672 1.875 11.5013 1.875 12.375C1.875 13.4106 4.3934 14.25 7.5 14.25C10.6066 14.25 13.125 13.4106 13.125 12.375C13.125 11.5014 11.3324 10.7673 8.90625 10.5591V11.75C8.90625 12.5267 8.27665 13.1563 7.5 13.1563C6.72335 13.1563 6.09375 12.5267 6.09375 11.75L6.09416 10.5591Z" fill="white"/>
<path d="M7.96875 11.75C7.96875 12.0089 7.75888 12.2188 7.5 12.2188C7.24112 12.2188 7.03125 12.0089 7.03125 11.75L7.03427 3C7.03427 2.30964 7.59391 1.75 8.28427 1.75H11.648C12.1126 1.75 12.4148 2.23895 12.207 2.65451L11.549 3.97049C11.461 4.14645 11.461 4.35355 11.549 4.52951L12.207 5.84549C12.4148 6.26106 12.1126 6.75 11.648 6.75H7.96875V11.75Z" fill="white"/>
</svg>
