<svg width="15" height="16" viewBox="0 0 15 16" fill="none" xmlns="http://www.w3.org/2000/svg">
<path fill-rule="evenodd" clip-rule="evenodd" d="M3.75 2.375C2.36929 2.375 1.25 3.49429 1.25 4.875V11.125C1.25 12.5057 2.36929 13.625 3.75 13.625H11.25C12.6307 13.625 13.75 12.5057 13.75 11.125V4.875C13.75 3.49429 12.6307 2.375 11.25 2.375H3.75ZM4.01002 5.10995C3.79461 4.96635 3.50358 5.02455 3.35998 5.23996C3.21638 5.45536 3.27458 5.74639 3.48999 5.89L5.85324 7.4655C6.85044 8.1303 8.14957 8.1303 9.14677 7.4655L11.51 5.89C11.7254 5.74639 11.7836 5.45536 11.64 5.23996C11.4964 5.02455 11.2054 4.96635 10.99 5.10995L8.62674 6.68545C7.94444 7.14031 7.05556 7.14031 6.37327 6.68545L4.01002 5.10995Z" fill="white"/>
</svg>
