<svg width="735" height="339" viewBox="0 0 735 339" fill="none" xmlns="http://www.w3.org/2000/svg">
<g clip-path="url(#clip0_1_1608)">
<path d="M501.428 651.462C500.614 651.812 499.711 652.095 498.919 652.599C483.785 660.453 468.492 655.038 461.57 639.174C450.829 614.563 440.309 589.843 429.722 565.21C411.096 521.959 392.624 478.687 373.689 435.48C368.576 423.846 366.975 413.059 375.411 402.522C376.879 400.745 375.922 399.069 375.273 397.351C371.298 388.075 367.168 378.821 363.412 369.436C361.937 365.867 359.177 365.308 355.977 364.969C312.362 359.733 268.659 354.431 225.045 349.195C217.341 348.226 209.661 347.411 202.023 346.354C198.491 345.903 195.848 346.665 192.883 348.967C183.086 356.705 174.287 365.326 167.439 375.956C164.114 381.139 159.534 382.644 155.287 380.563C149.958 378.082 148.56 372.379 152.168 366.448C156.936 358.783 162.436 351.802 169.175 345.749C169.944 345.091 168.939 359.632 170.388 358.25C156.727 356.933 145.809 367.545 133.085 368.299C121.068 369.033 111.715 345.907 106.922 357.115C100.689 371.355 94.7874 385.706 89.3945 400.301C85.0671 411.994 90.3117 423.452 101.41 428.195C111.757 432.649 123.666 427.997 129.233 417.232C131.307 413.167 132.872 408.859 135.035 404.861C137.329 400.687 141.18 399.048 145.755 400.69C150.087 402.287 152.599 405.948 151.276 410.3C146.661 425.888 139.499 439.707 122.765 445.268C108.364 450.11 94.9177 447.583 83.6587 437.515C71.7567 426.83 67.2491 412.909 71.9761 397.542C77.3115 380.439 84.8825 394.339 92.7152 378.145C101.682 359.512 133.746 378.143 155.287 380.563C181.463 383.436 188.805 344.767 214.873 347.969C257.053 353.091 304.785 341.051 346.965 346.172C353.697 346.962 353.697 346.962 351.039 340.727C324.327 278.551 297.616 216.374 270.749 154.219C262.932 136.042 263.702 118.947 274.401 102.432C276.063 99.84 278.234 97.492 280.54 95.5186C294.045 84.1167 307.616 72.6271 322.364 62.7033C339.838 50.9833 362.383 55.3857 375 71.9489C387.305 88.005 385.399 111.236 370.251 124.833C358.441 135.448 345.964 145.291 333.887 155.706C321.745 166.21 315.158 180.185 309.368 194.757C308.28 197.504 309.637 199.753 310.62 202.132C329.381 245.757 348.207 289.294 366.968 332.919C367.102 333.294 367.302 333.58 367.436 333.955C370.152 346.946 378.234 352.581 391.243 351.63C393.58 351.461 396.009 351.908 398.372 352.443C406.344 354.161 413.05 354.248 418.987 346.498C423.872 340.153 432.407 339.827 440.353 340.841C479.819 345.712 519.261 350.429 558.638 355.234C592.232 359.274 625.826 363.313 659.354 367.44C666.815 368.365 674.407 369.114 680.282 374.742C688.683 382.535 690.279 392.222 687.38 402.929C684.752 406.442 682.123 409.955 679.495 413.468C673.098 417.586 666.181 419.259 658.477 418.29C583.652 409.154 508.761 400.106 433.87 391.057C423.364 389.772 415.594 384.643 411.372 374.773C410.635 372.988 409.943 371.512 407.692 371.197C399.526 370.292 391.336 369.234 382.133 368.238C385.84 376.765 389.19 384.476 392.539 392.188C393.165 393.752 394.491 394.196 396.168 394.355C408.461 395.47 415.162 402.95 419.852 413.856C448.33 480.505 477.028 547.044 505.881 613.562C509.611 622.243 512.369 630.745 510.059 640.112C507.079 643.91 504.253 647.686 501.428 651.462ZM289.974 110.796C282.4 121.841 280.936 132.663 285.629 144.12C289.093 152.602 292.866 161.041 296.484 169.501C296.976 170.691 297.204 172.232 298.727 172.413C300.405 172.572 300.373 170.767 300.919 169.669C306.766 157.606 315.294 147.685 325.439 139.112C336.09 130.232 346.83 121.418 357.281 112.252C366.677 103.94 367.822 90.9612 360.54 82.2256C352.216 72.2986 339.723 70.8969 329.135 79.1389C318.327 87.4902 307.63 96.0618 296.845 104.567C294.099 106.759 291.708 109.217 289.974 110.796ZM667.577 387.291C665.119 385.589 662.119 385.536 659.228 385.153C602.061 378.271 544.96 371.3 487.793 364.418C477.286 363.132 477.529 363.177 476.193 373.273C475.642 377.518 476.971 378.512 480.965 378.898C540.45 386.008 599.957 393.272 659.53 400.447C661.295 400.673 663.281 400.789 664.956 400.398C668.084 399.725 670.124 397.553 670.681 394.408C671.372 391.637 670.146 389.213 667.577 387.291ZM491.723 634.886C494.857 631.066 492.276 626.944 490.513 623.022C477.648 593.123 464.784 563.225 451.854 533.414C441.425 509.31 431.061 485.118 420.632 461.014C419.895 459.229 419.526 456.213 417.408 456.273C413.174 456.392 409.237 458.515 405.897 460.948C403.194 462.898 406.055 465.723 406.992 467.794C429.417 520.188 452.061 572.472 474.552 624.778C476.004 628.193 477.367 631.542 479.259 634.738C482.174 639.522 488.02 639.65 491.723 634.886ZM430.659 372.08C431.896 372.458 433.642 373.079 435.408 373.304C439.603 373.977 443.774 374.496 448.012 374.927C459.07 376.214 459.07 376.214 459.474 365.147C459.494 364.751 459.514 364.355 459.557 364.113C459.657 362.133 458.768 360.92 456.848 360.716C449.321 359.879 441.927 358.867 434.446 358.339C431.026 358.108 428.612 360.411 427.769 363.754C426.97 366.854 427.91 369.475 430.659 372.08ZM388.23 415.676C386.742 417.85 387.022 420.799 388.14 423.553C389.66 427.43 391.424 431.352 393.01 435.142C397.366 445.387 399.089 445.854 408.674 439.876C410.126 439.044 410.937 438.144 410.134 436.447C406.965 429.418 404.169 422.259 400.494 415.536C398.088 410.996 391.493 411.13 388.23 415.676Z" fill="#BB8E38"/>
<path d="M147.753 178.627C164.434 163.164 184.023 155.081 207.099 155.634C266.377 157.11 304.473 223.832 274.877 274.837C255.643 308.116 217.297 322.986 180.773 311.412C178.63 310.768 176.619 309.948 174.781 308.71C171.041 306.322 169.809 302.798 171.243 298.665C172.765 294.599 176.019 292.65 180.368 293.302C182.863 293.661 185.426 294.483 187.812 295.172C217.086 304.062 246.32 288.812 259.126 266.34C274.993 238.486 264.951 204.261 243.708 187.408C218.232 166.978 177.824 167.429 154.738 198.1C138.574 219.704 138.229 246.02 152.089 268.308C153.135 270.049 154.401 271.681 155.359 273.357C158.031 278.096 157.151 282.78 153.24 285.607C149.46 288.258 144.383 287.473 141.073 283.216C135.232 275.695 130.931 267.408 128.324 258.335C122.687 239.46 123.648 221.001 131.537 203.069C132.234 201.399 132.754 199.596 133.297 197.947C138.094 191.537 142.89 185.126 147.753 178.627Z" fill="#BB8E38"/>
<path d="M179.063 263.835C176.237 267.611 170.374 268.43 166.742 265.713C163.022 262.929 162.152 257.073 165.001 253.451C167.76 249.762 173.492 249.12 177.324 252.124C180.802 254.863 181.691 260.322 179.063 263.835Z" fill="#BB8E38"/>
<path d="M188.246 244.543C184.634 241.429 184.119 235.838 187.122 232.195C189.993 228.727 195.57 228.105 198.96 230.778C202.88 233.848 203.464 239.901 200.218 243.5C197.17 246.836 191.57 247.303 188.246 244.543Z" fill="#BB8E38"/>
<path d="M159.825 233.961C156.17 231.09 155.455 225.212 158.237 221.678C160.954 218.231 166.663 217.434 170.118 220.019C174.016 222.936 174.731 228.813 171.597 232.632C168.66 236.188 163.391 236.767 159.825 233.961Z" fill="#BB8E38"/>
<path d="M181.991 213.013C177.939 210.119 177.073 204.813 179.964 200.949C182.789 197.173 187.947 196.374 191.71 198.916C195.65 201.59 196.805 207.249 194.069 211.091C191.42 215 185.8 215.863 181.991 213.013Z" fill="#BB8E38"/>
<path d="M193.82 264.056C196.866 260.17 202.069 259.679 206.012 262.904C209.513 265.797 210.159 271.212 207.377 274.746C204.463 278.456 198.708 278.945 195.03 275.92C191.441 272.96 190.906 267.766 193.82 264.056Z" fill="#BB8E38"/>
</g>
<defs>
<clipPath id="clip0_1_1608">
<rect width="468.997" height="566.45" fill="white" transform="translate(734.953 339.347) rotate(126.804)"/>
</clipPath>
</defs>
</svg>
